<?xml version="1.0" encoding="UTF-8"?> <svg xmlns="http://www.w3.org/2000/svg" viewBox="0 0 60 60"><path d="M57 27h-.881l.133-.17a3 3 0 0 0-4.741-3.684l-3 3.854H37.242l7.969-7.968 4.848.6a3 3 0 0 0 2.213-.611 2.969 2.969 0 0 0 1.135-2 3.017 3.017 0 0 0-2.607-3.343l-.207-.026.622-.622a3.006 3.006 0 0 0 0-4.243 3.077 3.077 0 0 0-4.243 0l-.623.622-.028-.209a3.009 3.009 0 0 0-3.346-2.6 3.005 3.005 0 0 0-2.611 3.35l.6 4.846L33 22.758V11.489l3.856-3a3 3 0 0 0-3.691-4.736L33 3.881V3a3 3 0 0 0-6 0v.881l-.17-.133a3 3 0 0 0-3.684 4.741l3.854 3v11.269l-7.968-7.969.6-4.848a3 3 0 0 0-5.954-.741l-.026.207-.622-.622a3.079 3.079 0 0 0-4.243 0 3 3 0 0 0 0 4.243l.622.623-.214.027a3.015 3.015 0 0 0-2.6 3.346 3 3 0 0 0 3.35 2.611l4.846-.6L22.758 27H11.489l-3-3.856a3 3 0 0 0-4.736 3.691l.128.165H3a3 3 0 0 0 0 6h.881l-.133.17a3 3 0 0 0 4.741 3.684l3-3.854h11.269l-7.969 7.968-4.848-.6a3 3 0 0 0-3.348 2.61A3.017 3.017 0 0 0 9.2 46.322l.207.026-.622.622a3.006 3.006 0 0 0 0 4.243 3.077 3.077 0 0 0 4.243 0l.623-.622.027.214a3 3 0 0 0 3.346 2.6 3 3 0 0 0 2.611-3.35l-.6-4.846L27 37.242v11.269l-3.856 3a3 3 0 0 0 3.691 4.736l.165-.128V57a3 3 0 0 0 6 0v-.881l.17.133a3 3 0 0 0 3.684-4.741l-3.854-3V37.242l7.968 7.969-.6 4.848a3 3 0 0 0 5.958.739l.026-.207.622.622a3.079 3.079 0 0 0 4.243 0 3 3 0 0 0 0-4.243l-.622-.623.214-.027a3.015 3.015 0 0 0 2.6-3.346 3 3 0 0 0-3.35-2.611l-4.846.6L37.242 33h11.269l3 3.856a3 3 0 0 0 4.736-3.691L56.119 33H57a3 3 0 0 0 0-6Zm0 4h-2.93a1 1 0 0 0-.788 1.615l1.386 1.776a1 1 0 1 1-1.579 1.235l-3.3-4.24A1 1 0 0 0 49 31H34.828a1 1 0 0 0-.707 1.707l10.022 10.021a1.009 1.009 0 0 0 .831.285l5.329-.664a1.01 1.01 0 0 1 .742.206.985.985 0 0 1 .378.663 1.012 1.012 0 0 1-.869 1.12l-2.242.275a1 1 0 0 0-.584 1.7l2.072 2.073a1 1 0 0 1 0 1.413 1.028 1.028 0 0 1-1.413 0l-2.073-2.071a1 1 0 0 0-1.7.585l-.274 2.234a1.015 1.015 0 0 1-1.122.876.985.985 0 0 1-.662-.378 1 1 0 0 1-.206-.74l.664-5.331a1 1 0 0 0-.285-.831L32.707 34.121a1 1 0 0 0-1.707.707V49a1 1 0 0 0 .386.789l4.238 3.3a1 1 0 1 1-1.224 1.583l-1.781-1.39A1 1 0 0 0 31 54.07V57a1 1 0 0 1-2 0v-2.93a1 1 0 0 0-1.615-.788l-1.776 1.386a1 1 0 1 1-1.235-1.579l4.24-3.3A1 1 0 0 0 29 49V34.828a1 1 0 0 0-1.707-.707L17.272 44.143a1 1 0 0 0-.285.831l.664 5.329a1 1 0 0 1-.206.742.985.985 0 0 1-.663.378 1.012 1.012 0 0 1-1.12-.869l-.275-2.241a1 1 0 0 0-1.7-.585L11.614 49.8a1.026 1.026 0 0 1-1.413 0 1 1 0 0 1 0-1.413l2.071-2.072a1 1 0 0 0-.584-1.7l-2.235-.274a1.014 1.014 0 0 1-.876-1.122.985.985 0 0 1 .378-.662 1 1 0 0 1 .74-.206l5.331.664a1 1 0 0 0 .831-.285l10.022-10.023A1 1 0 0 0 25.172 31H11a1 1 0 0 0-.789.386l-3.3 4.238A1 1 0 1 1 5.328 34.4l1.39-1.781A1 1 0 0 0 5.93 31H3a1 1 0 0 1 0-2h2.93a1 1 0 0 0 .788-1.615l-1.386-1.776a1 1 0 1 1 1.579-1.235l3.3 4.24A1 1 0 0 0 11 29h14.172a1 1 0 0 0 .707-1.707L15.857 17.272a1 1 0 0 0-.831-.285l-5.326.664a1.012 1.012 0 0 1-.742-.206.985.985 0 0 1-.378-.663 1.012 1.012 0 0 1 .869-1.12l2.242-.275a1 1 0 0 0 .584-1.7L10.2 11.614a1 1 0 0 1 0-1.413 1.028 1.028 0 0 1 1.413 0l2.073 2.071a1 1 0 0 0 1.7-.584l.274-2.235a1.009 1.009 0 0 1 1.122-.876 1 1 0 0 1 .869 1.123l-.664 5.331a1 1 0 0 0 .285.831l10.021 10.017A1 1 0 0 0 29 25.172V11a1 1 0 0 0-.386-.789l-4.238-3.3A1 1 0 1 1 25.6 5.328l1.781 1.39A1 1 0 0 0 29 5.93V3a1 1 0 0 1 2 0v2.93a1 1 0 0 0 1.615.788l1.776-1.386a1 1 0 1 1 1.235 1.579l-4.24 3.3A1 1 0 0 0 31 11v14.172a1 1 0 0 0 1.707.707l10.021-10.022a1 1 0 0 0 .285-.831L42.349 9.7a1 1 0 0 1 .205-.742.99.99 0 0 1 .664-.378 1.013 1.013 0 0 1 1.12.869l.275 2.242a1 1 0 0 0 1.7.584l2.073-2.075a1.026 1.026 0 0 1 1.413 0 1 1 0 0 1 0 1.413l-2.071 2.073a1 1 0 0 0 .584 1.7l2.235.274a1.014 1.014 0 0 1 .876 1.122.985.985 0 0 1-.378.662 1 1 0 0 1-.74.206l-5.331-.664a1.007 1.007 0 0 0-.831.285L34.121 27.293A1 1 0 0 0 34.828 29H49a1 1 0 0 0 .789-.386l3.3-4.238a1 1 0 1 1 1.583 1.224l-1.39 1.781A1 1 0 0 0 54.07 29H57a1 1 0 0 1 0 2Z"></path></svg> 