<?xml version="1.0" encoding="UTF-8"?> <svg xmlns="http://www.w3.org/2000/svg" id="Layer_1" viewBox="0 0 512 512"><path d="m427.741 195.82h42.905c17.963 0 32.577-14.614 32.577-32.577v-130.666c.001-17.963-14.614-32.577-32.577-32.577h-42.905c-17.963 0-32.577 14.614-32.577 32.577v49.333h-58.232v-10.458c0-16.328-13.284-29.612-29.612-29.612h-102.639c-16.328 0-29.612 13.284-29.612 29.612v10.458h-58.232v-49.333c-.001-17.963-14.615-32.577-32.578-32.577h-42.905c-17.963 0-32.578 14.614-32.578 32.577v130.666c0 17.963 14.614 32.577 32.577 32.577h42.905c17.963 0 32.577-14.614 32.577-32.577v-49.333h58.232v10.458c0 16.328 13.284 29.612 29.612 29.612h1.194v47.11c0 8.836 7.163 16 16 16h18.127v126.349c-27.124 6.14-48.51 27.527-54.651 54.651h-68.513v-49.332c0-17.963-14.614-32.577-32.577-32.577h-42.905c-17.963 0-32.577 14.614-32.577 32.577v130.666c-.001 17.962 14.614 32.576 32.577 32.576h42.905c17.963 0 32.577-14.614 32.577-32.577v-49.333h68.513c7.307 32.274 36.198 56.453 70.651 56.453s63.344-24.179 70.651-56.453h68.513v49.333c0 17.963 14.614 32.577 32.577 32.577h42.905c17.963 0 32.577-14.614 32.577-32.577v-130.665c0-17.963-14.614-32.577-32.577-32.577h-42.905c-17.963 0-32.577 14.614-32.577 32.577v49.332h-68.513c-6.14-27.123-27.527-48.51-54.651-54.651v-126.349h18.125c8.837 0 16-7.164 16-16v-47.11h1.194c16.328 0 29.612-13.284 29.612-29.612v-10.458h58.232v49.333c.001 17.963 14.615 32.577 32.578 32.577zm-342.905-32.577c0 .281-.297.577-.577.577h-42.905c-.28 0-.577-.296-.577-.577v-130.666c0-.281.297-.577.577-.577h42.905c.28 0 .577.296.577.577zm0 316.18c0 .281-.297.577-.577.577h-42.905c-.28 0-.577-.296-.577-.577v-130.665c0-.281.297-.577.577-.577h42.905c.28 0 .577.296.577.577zm342.328-130.665c0-.281.297-.577.577-.577h42.905c.28 0 .577.296.577.577v130.666c0 .281-.297.577-.577.577h-42.905c-.28 0-.577-.296-.577-.577zm-130.711 65.332c0 22.306-18.147 40.453-40.453 40.453s-40.453-18.147-40.453-40.453 18.147-40.453 40.453-40.453 40.453 18.147 40.453 40.453zm-89.385-340.251h97.863v48.14h-97.863zm67.057 111.251h-36.25v-31.11h36.25zm153.039-152.513c0-.281.297-.577.577-.577h42.905c.28 0 .577.296.577.577v130.666c0 .281-.297.577-.577.577h-42.905c-.28 0-.577-.296-.577-.577z"></path></svg> 