<?xml version="1.0" encoding="UTF-8"?> <svg xmlns="http://www.w3.org/2000/svg" viewBox="0 0 500 500"><path d="M362.353 146.646h-27.955a6.491 6.491 0 0 1-6.493-6.492 6.492 6.492 0 0 1 6.493-6.493h27.955c11.546 0 20.935-9.392 20.935-20.935 0-11.546-9.389-20.938-20.935-20.938H137.647c-11.545 0-20.935 9.392-20.935 20.938 0 11.543 9.39 20.935 20.935 20.935h139.332a6.492 6.492 0 1 1 0 12.985H137.647c-18.703 0-33.921-15.218-33.921-33.921 0-18.706 15.219-33.924 33.921-33.924h224.706c18.703 0 33.921 15.218 33.921 33.924 0 18.703-15.218 33.921-33.921 33.921z"></path><path d="M312.326 146.646h-13.27a6.492 6.492 0 1 1 0-12.985h13.27a6.492 6.492 0 1 1 0 12.985zM362.353 201.502h-27.955a6.492 6.492 0 1 1 0-12.985h27.955c11.546 0 20.935-9.392 20.935-20.935s-9.389-20.935-20.935-20.935a6.492 6.492 0 1 1 0-12.985c18.703 0 33.921 15.218 33.921 33.921 0 18.701-15.218 33.919-33.921 33.919zM276.979 201.502H137.647c-18.703 0-33.921-15.218-33.921-33.921s15.219-33.921 33.921-33.921a6.492 6.492 0 1 1 0 12.985c-11.545 0-20.935 9.392-20.935 20.935s9.39 20.935 20.935 20.935h139.332a6.492 6.492 0 0 1 6.493 6.493 6.492 6.492 0 0 1-6.493 6.494zM312.326 201.502h-13.27a6.493 6.493 0 1 1 0-12.985h13.27a6.492 6.492 0 1 1 0 12.985z"></path><path d="M362.353 256.361h-27.955a6.492 6.492 0 0 1-6.493-6.493 6.492 6.492 0 0 1 6.493-6.493h27.955c11.546 0 20.935-9.392 20.935-20.935 0-11.545-9.389-20.938-20.935-20.938a6.493 6.493 0 1 1 0-12.985c18.703 0 33.921 15.218 33.921 33.923 0 18.703-15.218 33.921-33.921 33.921zM276.979 256.361H137.647c-18.703 0-33.921-15.218-33.921-33.922 0-18.705 15.219-33.923 33.921-33.923a6.492 6.492 0 1 1 0 12.985c-11.545 0-20.935 9.392-20.935 20.938 0 11.543 9.39 20.935 20.935 20.935h139.332a6.492 6.492 0 0 1 6.493 6.493 6.491 6.491 0 0 1-6.493 6.494zM312.326 256.361h-13.27a6.493 6.493 0 1 1 0-12.986h13.27a6.492 6.492 0 0 1 6.493 6.493 6.492 6.492 0 0 1-6.493 6.493z"></path><path d="M362.353 311.217h-27.955a6.492 6.492 0 0 1-6.493-6.493 6.492 6.492 0 0 1 6.493-6.493h27.955c11.546 0 20.935-9.392 20.935-20.935s-9.389-20.935-20.935-20.935a6.493 6.493 0 1 1 0-12.986c18.703 0 33.921 15.218 33.921 33.921s-15.218 33.921-33.921 33.921zM276.979 311.217H137.647c-18.703 0-33.921-15.218-33.921-33.922 0-18.703 15.219-33.921 33.921-33.921a6.492 6.492 0 0 1 6.493 6.493 6.492 6.492 0 0 1-6.493 6.493c-11.545 0-20.935 9.392-20.935 20.935s9.39 20.935 20.935 20.935h139.332a6.492 6.492 0 0 1 6.493 6.493 6.491 6.491 0 0 1-6.493 6.494zM312.326 311.217h-13.27a6.493 6.493 0 1 1 0-12.986h13.27a6.492 6.492 0 0 1 6.493 6.493 6.492 6.492 0 0 1-6.493 6.493z"></path><path d="M362.353 366.076h-27.955c-3.587 0-6.493-2.907-6.493-6.493s2.906-6.493 6.493-6.493h27.955c11.546 0 20.935-9.392 20.935-20.938 0-11.543-9.389-20.935-20.935-20.935a6.493 6.493 0 1 1 0-12.986c18.703 0 33.921 15.218 33.921 33.921 0 18.706-15.218 33.924-33.921 33.924zM276.979 366.076H137.647c-18.703 0-33.921-15.218-33.921-33.924 0-18.703 15.219-33.921 33.921-33.921a6.492 6.492 0 0 1 6.493 6.493 6.492 6.492 0 0 1-6.493 6.493c-11.545 0-20.935 9.392-20.935 20.935 0 11.546 9.39 20.938 20.935 20.938h139.332a6.492 6.492 0 0 1 6.493 6.493 6.492 6.492 0 0 1-6.493 6.493zM312.326 366.076h-13.27a6.493 6.493 0 1 1 0-12.986h13.27c3.587 0 6.493 2.907 6.493 6.493s-2.906 6.493-6.493 6.493z"></path><path d="M362.353 420.932H137.647c-18.703 0-33.921-15.218-33.921-33.921s15.219-33.922 33.921-33.922a6.493 6.493 0 1 1 0 12.986c-11.545 0-20.935 9.392-20.935 20.935s9.39 20.935 20.935 20.935h224.706c11.546 0 20.935-9.392 20.935-20.935s-9.389-20.935-20.935-20.935a6.493 6.493 0 1 1 0-12.986c18.703 0 33.921 15.219 33.921 33.922s-15.218 33.921-33.921 33.921zM342.311 91.787H157.689a6.493 6.493 0 0 1-6.493-6.493V55.756a6.492 6.492 0 0 1 6.493-6.493H342.31a6.493 6.493 0 0 1 6.493 6.493v29.538a6.49 6.49 0 0 1-6.492 6.493zM164.182 78.801h171.635V62.249H164.182z"></path><path d="M279.014 62.249h-58.027a6.492 6.492 0 0 1-6.493-6.493c0-16.958 13.798-30.756 30.761-30.756h9.491c16.963 0 30.761 13.798 30.761 30.756a6.493 6.493 0 0 1-6.493 6.493zm-50.306-12.986h42.585c-2.603-6.597-9.04-11.276-16.547-11.276h-9.491c-7.508-.001-13.945 4.679-16.547 11.276zM342.047 450.734H157.425a6.492 6.492 0 0 1-6.493-6.492v-29.539a6.493 6.493 0 0 1 6.493-6.493h184.621a6.492 6.492 0 0 1 6.493 6.493v29.539a6.49 6.49 0 0 1-6.492 6.492zm-178.128-12.985h171.636v-16.553H163.919z"></path><path d="M254.482 475h-9.491c-16.963 0-30.761-13.798-30.761-30.758a6.492 6.492 0 0 1 6.493-6.493h58.027a6.492 6.492 0 0 1 6.493 6.493c0 16.96-13.798 30.758-30.761 30.758zm-26.038-24.266c2.597 6.597 9.035 11.279 16.547 11.279h9.491c7.513 0 13.95-4.682 16.547-11.279z"></path></svg> 