<svg xmlns="http://www.w3.org/2000/svg" viewBox="0 0 64 64"><path d="M13.997 21.99c-4.411 0-8 3.59-8 8s3.589 8 8 8c10.613-.44 10.61-15.562 0-16zm0 14c-7.941-.281-7.94-11.72 0-12 7.942.282 7.938 11.72 0 12z"></path><path d="M25.533 47.787c1.97-5.533-2.627-10.399-8.333-9.797a.998.998 0 0 0-.667.255c-1.26 1.298-3.818 1.292-5.072 0-.379-.418-1.545-.207-2.034-.255-4.011 0-7.343 3.181-7.429 7.091-.125 2.26 1.076 4.956 3.671 4.91h16.656c1.421 0 2.71-.886 3.208-2.204zM41.997 29.99c0 4.411 3.589 8 8 8s8-3.589 8-8c-.44-10.613-15.562-10.61-16 0zm8-6c3.308 0 6 2.692 6 6-.282 7.941-11.72 7.94-12 0 0-3.308 2.691-6 6-6z"></path><path d="M54.567 37.99c-.506.047-1.648-.162-2.034.255-1.263 1.298-3.815 1.293-5.072 0a1 1 0 0 0-.667-.255h-1.367c-4.011 0-7.343 3.181-7.429 7.091-.125 2.26 1.076 4.956 3.671 4.91h16.656c1.421 0 2.71-.886 3.208-2.204 1.849-4.642-1.92-9.874-6.966-9.797zM42.432 22.961c.78-.78.78-2.049 0-2.828l-4.243-4.243c-.756-.756-2.074-.756-2.828 0l-.708.707a1.021 1.021 0 0 1-1.413 0l-2.829-2.828a1.005 1.005 0 0 1 0-1.414l.707-.707c.78-.78.78-2.05 0-2.83l-4.242-4.242c-.755-.755-2.072-.757-2.829 0-3.65 2.946-4.14 8.717-.707 12.02l7.07 7.072c3.4 3.438 8.985 2.956 12.022-.707zM18.45 16.18a24.129 24.129 0 0 0-3.224 2.641c-.612.56-.219 1.655.596 1.711.285.03.58-.064.8-.279a22.104 22.104 0 0 1 2.956-2.422c1.076-.74-.046-2.386-1.129-1.65zM26.407 57.272a21.924 21.924 0 0 1-3.596-1.284c-1.203-.532-2.02 1.252-.835 1.817 1.26.579 2.58 1.051 3.926 1.402a1 1 0 0 0 .506-1.935zM19.492 54.096a22.154 22.154 0 0 1-2.942-2.44 1 1 0 0 0-1.405 1.424c1.136 1.003 2.262 2.264 3.675 2.833.982.137 1.525-1.27.672-1.817zM33.995 57.903a22.086 22.086 0 0 1-3.82.01c-1.3-.088-1.48 1.84-.186 1.992 1.405.118 2.806.114 4.185-.01a1 1 0 1 0-.18-1.992zM44.491 16.649a1 1 0 0 0 .236 1.394 21.954 21.954 0 0 1 2.91 2.476 1.001 1.001 0 0 0 1.424-1.406 24.146 24.146 0 0 0-3.176-2.7 1 1 0 0 0-1.394.236zM47.566 51.534c-.9.9-1.884 1.728-2.925 2.46-.759.495-.413 1.756.474 1.813a.997.997 0 0 0 .676-.176 24.203 24.203 0 0 0 3.19-2.682c.919-.929-.484-2.336-1.415-1.415zM38.38 12.85c-1.274-.32-1.79 1.558-.529 1.93 1.227.337 2.431.784 3.58 1.329a1 1 0 0 0 .857-1.807 23.956 23.956 0 0 0-3.907-1.451zM41.337 55.912c-1.15.54-2.355.984-3.584 1.317-1.06.273-.913 1.87.161 1.96 1.48-.202 2.907-.879 4.274-1.467a1.001 1.001 0 0 0-.85-1.81z"></path></svg>