<?xml version="1.0" encoding="UTF-8"?> <svg xmlns="http://www.w3.org/2000/svg" xml:space="preserve" style="enable-background:new 0 0 512 512" viewBox="0 0 512 512"><circle cx="241" cy="436" r="15"></circle><circle cx="76" cy="271" r="15"></circle><circle cx="124.33" cy="387.67" r="15"></circle><circle cx="124.33" cy="153.33" r="15"></circle><circle cx="357.67" cy="387.67" r="15"></circle><path d="M256 0c-8.284 0-15 6.716-15 15v15C108.332 30 0 138.34 0 271c0 132.668 108.341 241 241 241 132.337 0 240-108.112 240-241h16c8.284 0 15-6.716 15-15C512 115.244 396.736 0 256 0zm-15 482c-116.346 0-211-94.654-211-211S124.654 60 241 60v45c0 8.284 6.716 15 15 15 74.439 0 135 61.009 135 136 0 8.284 6.716 14.9 15 14.9h45C451 387.246 356.794 482 241 482zm179.331-241C413.257 161.955 350.128 97.88 271 90.679V30.492C383.686 37.916 474.084 128.314 481.508 241h-61.177z"></path><path d="M241 150c-66.168 0-120 54.28-120 121 0 66.168 53.832 120 120 120s120-53.832 120-120c0-66.72-53.832-121-120-121zm0 211c-49.626 0-90-40.374-90-90 0-50.177 40.374-91 90-91s90 40.823 90 91c0 49.626-40.374 90-90 90z"></path><path d="M241 211c-33.084 0-60 26.916-60 60s26.916 60 60 60 60-26.916 60-60-26.916-60-60-60zm0 90c-16.542 0-30-13.458-30-30s13.458-30 30-30 30 13.458 30 30-13.458 30-30 30z"></path></svg> 