<?xml version="1.0" encoding="UTF-8"?> <svg xmlns="http://www.w3.org/2000/svg" xml:space="preserve" style="enable-background:new 0 0 512 512" viewBox="0 0 512 512"><path d="M496 192h-48c-8.848 0-16 7.168-16 16v16h-16v-16c0-8.832-7.152-16-16-16h-25.376l-43.296-43.296c-1.472-1.488-3.248-2.656-5.216-3.472-1.952-.8-4.032-1.232-6.112-1.232h-48v-32h32c8.848 0 16-7.168 16-16s-7.152-16-16-16H160c-8.848 0-16 7.168-16 16s7.152 16 16 16h32v32h-48c-.512 0-.944.24-1.44.288-1.152.112-2.224.32-3.312.672-.944.304-1.808.64-2.672 1.104-.896.48-1.712 1.04-2.528 1.696a16.16 16.16 0 0 0-2.272 2.288c-.336.4-.784.64-1.088 1.088L103.44 192H64c-8.848 0-16 7.168-16 16v48H32v-48c0-8.832-7.152-16-16-16s-16 7.168-16 16v144c0 8.832 7.152 16 16 16s16-7.168 16-16v-64h16v64c0 8.832 7.152 16 16 16h38.112l27.584 55.152c.752 1.504 1.744 2.816 2.864 3.968.224.24.512.4.752.608a15.812 15.812 0 0 0 3.776 2.544c.464.224.928.432 1.424.608 1.744.656 3.568 1.104 5.456 1.12H336c2.336 0 4.528-.56 6.528-1.456.528-.24.928-.672 1.424-.96 1.456-.864 2.8-1.824 3.92-3.088.176-.208.448-.272.624-.496l59.2-74H432v16c0 8.832 7.152 16 16 16h48c8.848 0 16-7.168 16-16V208c0-8.832-7.152-16-16-16zm-16 160h-16v-16c0-8.832-7.152-16-16-16h-48c-.304 0-.56.16-.864.176-1.088.064-2.112.352-3.168.64-.992.272-1.968.464-2.88.896-.832.4-1.536 1.008-2.304 1.552-.928.672-1.84 1.312-2.608 2.176-.208.224-.48.32-.672.56l-59.2 74H153.888l-27.584-55.152c-.352-.704-.96-1.168-1.408-1.808-.672-.96-1.264-1.92-2.128-2.72-.768-.704-1.648-1.168-2.528-1.696-.864-.544-1.664-1.12-2.64-1.488-1.104-.416-2.272-.528-3.456-.704-.72-.096-1.376-.432-2.144-.432H80V224h32.016c1.904 0 3.76-.448 5.536-1.12.352-.128.704-.24 1.056-.4a15.667 15.667 0 0 0 4.416-2.976c.256-.24.448-.528.688-.784.544-.592 1.136-1.152 1.584-1.84L152.56 176H208c8.848 0 16-7.168 16-16v-48h16v48c0 8.832 7.152 16 16 16h57.376l43.296 43.296c1.472 1.488 3.248 2.656 5.216 3.472 1.952.8 4.032 1.232 6.112 1.232h16v16c0 8.832 7.152 16 16 16h48c8.848 0 16-7.168 16-16v-16h16v128z"></path><path d="M312.96 226.736c-7.344-4.96-17.264-3.024-22.224 4.288l-66.24 97.904-38.736-29.888c-7.024-5.408-17.04-4.096-22.432 2.896-5.392 6.992-4.096 17.04 2.896 22.432l52.224 40.288a15.89 15.89 0 0 0 12.32 3.136 15.968 15.968 0 0 0 10.704-6.832l75.776-112c4.96-7.328 3.024-17.264-4.288-22.224z"></path></svg> 