<?xml version="1.0" encoding="UTF-8"?> <svg xmlns="http://www.w3.org/2000/svg" xml:space="preserve" viewBox="0 0 682.667 682.667"><defs><clipPath id="a"><path d="M0 512h512V0H0Z"></path></clipPath><clipPath id="b"><path d="M0 512h512V0H0Z"></path></clipPath></defs><g clip-path="url(#a)" transform="matrix(1.33333 0 0 -1.33333 0 682.667)"><path d="M497 15H15v60h482z" style="fill:none;stroke:#000;stroke-width:30;stroke-linecap:butt;stroke-linejoin:miter;stroke-miterlimit:10;stroke-dasharray:none;stroke-opacity:1"></path></g><path d="m0 0 60 105h242L362 0" style="fill:none;stroke:#000;stroke-width:30;stroke-linecap:butt;stroke-linejoin:miter;stroke-miterlimit:10;stroke-dasharray:none;stroke-opacity:1" transform="matrix(1.33333 0 0 -1.33333 100 582.667)"></path><path d="M0 0v-92" style="fill:none;stroke:#000;stroke-width:30;stroke-linecap:butt;stroke-linejoin:miter;stroke-miterlimit:10;stroke-dasharray:none;stroke-opacity:1" transform="matrix(1.33333 0 0 -1.33333 291.333 320)"></path><path d="M0 0v-92" style="fill:none;stroke:#000;stroke-width:30;stroke-linecap:butt;stroke-linejoin:miter;stroke-miterlimit:10;stroke-dasharray:none;stroke-opacity:1" transform="matrix(1.33333 0 0 -1.33333 391.333 320)"></path><g clip-path="url(#b)" transform="matrix(1.33333 0 0 -1.33333 0 682.667)"><path d="m0 0 46.153-81.446h75L167.306 0c36.321 64.097-9.98 143.554-83.653 143.554S-36.322 64.097 0 0Z" style="fill:none;stroke:#000;stroke-width:30;stroke-linecap:butt;stroke-linejoin:miter;stroke-miterlimit:10;stroke-dasharray:none;stroke-opacity:1" transform="translate(172.347 353.446)"></path><path d="M0 0c16.977-27.062 47.072-45.059 81.376-45.059S145.775-27.062 162.752 0" style="fill:none;stroke:#000;stroke-width:30;stroke-linecap:butt;stroke-linejoin:miter;stroke-miterlimit:10;stroke-dasharray:none;stroke-opacity:1" transform="translate(174.624 452.059)"></path></g></svg> 