<svg xmlns="http://www.w3.org/2000/svg" id="Layer_1" data-name="Layer 1" viewBox="0 0 163.74 36.4"><defs><style>.cls-1{fill:#034c8c;}.cls-2{fill:#f1a01f;}.cls-3{fill:#9a9a9a;}</style></defs><path class="cls-1" d="M21.34,21.22H14l-2.3-9.06L8.48,21.22H1L6,7.68H19.58l1.34,5.09,4.82-5.09h13.2L32.35,25.83H24.86l4.88-13.35ZM6.62,5.86,8.74,0h8.83l1.54,5.86Zm20.8,0L32.92,0h8.82L39.63,5.86ZM39,14.43,41.5,7.68h7.9l-2.56,7a1.32,1.32,0,0,0-.09.48c0,.13.15.19.45.19H58.56a.54.54,0,0,0,.52-.25,2.71,2.71,0,0,0,.24-.52l2.53-6.91h7.89l-2.47,6.75A10.57,10.57,0,0,1,66,16.79,11.89,11.89,0,0,1,64,19a11.34,11.34,0,0,1-2.37,1.63,5.75,5.75,0,0,1-2.57.64H42.33a3.33,3.33,0,0,1-2.13-.64A3.9,3.9,0,0,1,39,19a5.48,5.48,0,0,1-.39-2.19A7,7,0,0,1,39,14.43Zm3.2-8.57a11.89,11.89,0,0,1,1.4-2.11,13,13,0,0,1,1.89-1.89A9.63,9.63,0,0,1,47.74.51,5.8,5.8,0,0,1,50.06,0H66.74a3.6,3.6,0,0,1,2,.51A3.57,3.57,0,0,1,70,1.87a5,5,0,0,1,.53,1.89,6.74,6.74,0,0,1-.13,2.1Zm47.87,7.75H79.45v-.1l2.11-5.76H97.37A7,7,0,0,1,96.22,8.9a2.12,2.12,0,0,1,1.49.9,4.12,4.12,0,0,1,.65,1.68,6.51,6.51,0,0,1,0,1.87,6.73,6.73,0,0,1-.3,1.47,9.41,9.41,0,0,1-1.2,2.2A13.89,13.89,0,0,1,95,19.11a10.76,10.76,0,0,1-2.23,1.5,5.64,5.64,0,0,1-2.48.61H67.39L72.32,7.68H79.8l-2.75,7.55H89.44A.87.87,0,0,0,90,15a1.41,1.41,0,0,0,.4-.56.59.59,0,0,0-.08-.43ZM95.32,0a3.84,3.84,0,0,1,2.79.91A3.29,3.29,0,0,1,99,3.27a5.72,5.72,0,0,1-.38,2l-.22.61H73L75.1,0Z" transform="translate(0 0.01)"></path><path class="cls-2" d="M122,13.61H109l-.64,1.79h18.84l-2.14,5.86H98.3l4.93-13.54h20.93Zm8.61-7.71H104a12.52,12.52,0,0,1,1.41-2.11,13,13,0,0,1,1.89-1.89A9.5,9.5,0,0,1,109.45.55,5.71,5.71,0,0,1,111.74,0h21Zm20.29,4.71,5.15,10.59H144.89l-2-4-4.83,4H126.94l12.8-10.59-1.41-2.95h16.13ZM163.74,0l-7,5.86h-19.2L134.69,0h11.17l1.92,4,4.86-4Z" transform="translate(0 0.01)"></path><path class="cls-3" d="M4.93,36.3l-.6-1.4H1.45L.84,36.3H0l2.54-5.69h.69L5.74,36.3ZM1.74,34.24H4.05l-1.16-2.7Zm7,1.54a2.38,2.38,0,0,1-.59-1.73V30.61H9V34.1a1.71,1.71,0,0,0,.37,1.19,1.46,1.46,0,0,0,1.12.4,1.43,1.43,0,0,0,1.11-.4A1.66,1.66,0,0,0,12,34.1V30.61h.83v3.44a2.34,2.34,0,0,1-.6,1.73,2.35,2.35,0,0,1-1.72.59A2.38,2.38,0,0,1,8.79,35.78Zm8.46.52v-5H15.33v-.69H20v.7H18.09v5Zm6-.29a2.4,2.4,0,0,1-.92-1,3.89,3.89,0,0,1,0-3.1,2.28,2.28,0,0,1,.92-1,2.75,2.75,0,0,1,1.4-.35,2.78,2.78,0,0,1,1.41.35,2.28,2.28,0,0,1,.92,1A3.86,3.86,0,0,1,27,35a2.28,2.28,0,0,1-.92,1,2.92,2.92,0,0,1-2.81,0Zm2.73-.9a3.12,3.12,0,0,0,0-3.3,1.81,1.81,0,0,0-2.56-.1l-.1.1a3.13,3.13,0,0,0,0,3.3,1.8,1.8,0,0,0,2.54.11l.11-.11Zm8.13-4.5h2.36a2,2,0,0,1,1.4.45,1.58,1.58,0,0,1,.5,1.26,1.62,1.62,0,0,1-.5,1.26,2,2,0,0,1-1.4.45H34.94V36.3h-.83Zm2.27,2.75c.79,0,1.19-.35,1.19-1s-.4-1-1.19-1H34.94v2.08Zm8.51,2.94-.6-1.4H41.41l-.61,1.4H40l2.54-5.69h.69l2.55,5.69Zm-3.15-2.06h2.32l-1.16-2.7ZM52.86,36.3h-.92l-1-1.82a1.07,1.07,0,0,0-.38-.41A1.35,1.35,0,0,0,50,34H49V36.3h-.8V30.61h2.42A2.13,2.13,0,0,1,52.1,31a1.75,1.75,0,0,1,.13,2.3,1.68,1.68,0,0,1-1,.54,1.13,1.13,0,0,1,.69.63Zm-2.29-3a1.52,1.52,0,0,0,.93-.25.93.93,0,0,0,.3-.76.9.9,0,0,0-.3-.76,1.45,1.45,0,0,0-.93-.24H49.06v2Zm6.17,3v-5H54.86v-.69h4.69v.7H57.62v5Zm5.81-.11a2.66,2.66,0,0,1-1-.52l.3-.62a2.68,2.68,0,0,0,.87.49,3.37,3.37,0,0,0,1,.15,1.75,1.75,0,0,0,1-.24.77.77,0,0,0,.34-.67.58.58,0,0,0-.32-.55,4,4,0,0,0-1-.35,5.53,5.53,0,0,1-1.12-.33,1.7,1.7,0,0,1-.68-.5,1.31,1.31,0,0,1-.24-.81,1.47,1.47,0,0,1,.26-.88,1.68,1.68,0,0,1,.74-.6,2.74,2.74,0,0,1,1.13-.21,3.55,3.55,0,0,1,1.12.18,2.49,2.49,0,0,1,.87.52l-.29.62a2.56,2.56,0,0,0-.81-.48,2.46,2.46,0,0,0-.89-.16,1.61,1.61,0,0,0-1,.25.83.83,0,0,0-.35.71.64.64,0,0,0,.31.58,3,3,0,0,0,1,.36,7.6,7.6,0,0,1,1.15.34,1.77,1.77,0,0,1,.7.47,1.18,1.18,0,0,1,.26.79,1.39,1.39,0,0,1-.26.86,1.72,1.72,0,0,1-.75.58,3,3,0,0,1-1.16.2,3.93,3.93,0,0,1-1.18-.18Zm14,.11L76,35.61a2.27,2.27,0,0,1-.79.54,2.36,2.36,0,0,1-.94.19,2.31,2.31,0,0,1-1-.19,1.51,1.51,0,0,1-.67-.53,1.32,1.32,0,0,1-.24-.79,1.53,1.53,0,0,1,.3-.92,3.36,3.36,0,0,1,1-.8,2.72,2.72,0,0,1-.5-.67,1.32,1.32,0,0,1-.15-.62,1.23,1.23,0,0,1,.4-.93,1.56,1.56,0,0,1,1.07-.28,1.4,1.4,0,0,1,1,.32,1.11,1.11,0,0,1,.36.86,1.26,1.26,0,0,1-.26.77,3,3,0,0,1-.86.72l1.24,1.33A4,4,0,0,0,76.3,33H77a4.52,4.52,0,0,1-.58,2.15l1.16,1.23Zm-1.08-1.14-1.47-1.55a2.57,2.57,0,0,0-.69.58,1,1,0,0,0-.21.64.82.82,0,0,0,.3.67,1.31,1.31,0,0,0,.81.24A1.64,1.64,0,0,0,75.52,35.16Zm-1.58-3.82a.63.63,0,0,0-.2.5.87.87,0,0,0,.11.41,2.55,2.55,0,0,0,.4.53,3.3,3.3,0,0,0,.67-.51.8.8,0,0,0,.18-.49.66.66,0,0,0-.17-.46.68.68,0,0,0-.47-.17A.72.72,0,0,0,73.94,31.34Zm14.15,5-.61-1.4H84.6L84,36.3h-.84l2.58-5.69h.7L89,36.3Zm-3.2-2.06H87.2l-1.15-2.7ZM92.32,36a2.31,2.31,0,0,1-.93-1,3.78,3.78,0,0,1,0-3.09,2.31,2.31,0,0,1,.93-1,2.92,2.92,0,0,1,1.42-.37,3.31,3.31,0,0,1,1.08.18,2.37,2.37,0,0,1,.84.52l-.29.62a2.83,2.83,0,0,0-.78-.48,2.45,2.45,0,0,0-.85-.15,1.75,1.75,0,0,0-1.37.58,3,3,0,0,0,0,3.28,1.75,1.75,0,0,0,1.37.58,2.45,2.45,0,0,0,.85-.15,2.83,2.83,0,0,0,.78-.48l.29.62a2.37,2.37,0,0,1-.84.52,3.31,3.31,0,0,1-1.08.18A2.8,2.8,0,0,1,92.32,36Zm7.15,0a2.27,2.27,0,0,1-.94-1,3.78,3.78,0,0,1,0-3.09,2.33,2.33,0,0,1,.94-1,2.86,2.86,0,0,1,1.43-.35,3.31,3.31,0,0,1,1.08.18,2.32,2.32,0,0,1,.85.52l-.29.62a3,3,0,0,0-.79-.48,2.4,2.4,0,0,0-.84-.15,1.7,1.7,0,0,0-1.37.58,3,3,0,0,0,0,3.28,1.7,1.7,0,0,0,1.37.58,2.4,2.4,0,0,0,.84-.15,3,3,0,0,0,.79-.48l.29.62a2.32,2.32,0,0,1-.85.52,3.31,3.31,0,0,1-1.08.18A2.67,2.67,0,0,1,99.47,36Zm6.17.29V30.61h3.69v.67h-2.88v1.8h2.72v.67h-2.72v1.86h2.88v.67Zm7.1-.11a2.68,2.68,0,0,1-.95-.52l.3-.62a2.68,2.68,0,0,0,.87.49,3.37,3.37,0,0,0,1,.15,1.75,1.75,0,0,0,1-.24.76.76,0,0,0,.35-.67.58.58,0,0,0-.33-.55,4,4,0,0,0-1-.35,5.44,5.44,0,0,1-1.11-.33,1.73,1.73,0,0,1-.69-.5,1.31,1.31,0,0,1-.24-.81,1.47,1.47,0,0,1,.26-.88,1.76,1.76,0,0,1,.75-.6,2.69,2.69,0,0,1,1.12-.21,3.61,3.61,0,0,1,1.13.18,2.23,2.23,0,0,1,.86.52l-.29.62a2.56,2.56,0,0,0-.81-.48,2.41,2.41,0,0,0-.88-.16,1.61,1.61,0,0,0-1,.25.83.83,0,0,0-.35.71.64.64,0,0,0,.31.58,3,3,0,0,0,1,.36,7.6,7.6,0,0,1,1.15.34,1.8,1.8,0,0,1,.71.47,1.18,1.18,0,0,1,.26.79,1.45,1.45,0,0,1-.26.86,1.74,1.74,0,0,1-.76.58,3,3,0,0,1-1.15.2,3.79,3.79,0,0,1-1.25-.18Zm6.8,0a2.66,2.66,0,0,1-1-.52l.3-.62a2.68,2.68,0,0,0,.87.49,3.07,3.07,0,0,0,1,.15,1.75,1.75,0,0,0,1-.24.77.77,0,0,0,.34-.67.6.6,0,0,0-.32-.55,4,4,0,0,0-1-.35,5.53,5.53,0,0,1-1.12-.33,1.61,1.61,0,0,1-.68-.5,1.3,1.3,0,0,1-.25-.81,1.48,1.48,0,0,1,.27-.88,1.68,1.68,0,0,1,.74-.6,2.72,2.72,0,0,1,1.12-.21,3.61,3.61,0,0,1,1.13.18,2.49,2.49,0,0,1,.87.52l-.29.62a2.89,2.89,0,0,0-.81-.48,2.46,2.46,0,0,0-.89-.16,1.61,1.61,0,0,0-1,.25.83.83,0,0,0-.35.71.64.64,0,0,0,.3.58,3,3,0,0,0,1,.36,7.6,7.6,0,0,1,1.15.34,1.77,1.77,0,0,1,.7.47,1.18,1.18,0,0,1,.26.79,1.39,1.39,0,0,1-.26.86,1.72,1.72,0,0,1-.75.58,3,3,0,0,1-1.16.2,3.86,3.86,0,0,1-1.17-.18Zm7.2-.18a2.34,2.34,0,0,1-.92-1,3.89,3.89,0,0,1,0-3.1,2.28,2.28,0,0,1,.92-1,2.75,2.75,0,0,1,1.4-.35,2.78,2.78,0,0,1,1.41.35,2.28,2.28,0,0,1,.92,1,3.86,3.86,0,0,1,0,3.09,2.28,2.28,0,0,1-.92,1,2.7,2.7,0,0,1-1.41.36A2.63,2.63,0,0,1,126.74,36Zm2.73-.9a3.12,3.12,0,0,0,0-3.3,1.61,1.61,0,0,0-1.34-.58,1.59,1.59,0,0,0-1.32.58,3.13,3.13,0,0,0,0,3.3,1.59,1.59,0,0,0,1.32.58,1.64,1.64,0,0,0,1.37-.58Zm8.87,1.19h-.92l-1-1.82a1.07,1.07,0,0,0-.38-.41,1.35,1.35,0,0,0-.59-.11h-.93V36.3h-.78V30.61h2.42a2.13,2.13,0,0,1,1.44.42,1.75,1.75,0,0,1,.13,2.3,1.68,1.68,0,0,1-1,.54,1.13,1.13,0,0,1,.69.63Zm-2.29-3a1.52,1.52,0,0,0,.93-.25.93.93,0,0,0,.3-.76.9.9,0,0,0-.3-.76,1.45,1.45,0,0,0-.93-.24h-1.51v2Zm5,3V30.61h.83V36.3Zm3.93,0V30.61h3.74v.67h-2.88v1.8h2.72v.67h-2.72v1.86h2.88v.67Zm7.06-.11a2.8,2.8,0,0,1-.94-.52l.29-.62a2.68,2.68,0,0,0,.87.49,3.37,3.37,0,0,0,1,.15,1.75,1.75,0,0,0,1-.24.76.76,0,0,0,.35-.67.6.6,0,0,0-.32-.55,4,4,0,0,0-1-.35,5.44,5.44,0,0,1-1.11-.33,1.61,1.61,0,0,1-.68-.5,1.24,1.24,0,0,1-.25-.81,1.47,1.47,0,0,1,.26-.88,1.84,1.84,0,0,1,.75-.6,2.69,2.69,0,0,1,1.12-.21,3.61,3.61,0,0,1,1.13.18,2.23,2.23,0,0,1,.86.52l-.29.62a2.56,2.56,0,0,0-.81-.48,2.41,2.41,0,0,0-.88-.16,1.61,1.61,0,0,0-1,.25.83.83,0,0,0-.35.71.64.64,0,0,0,.31.58,3,3,0,0,0,1,.36,8.08,8.08,0,0,1,1.16.34,1.77,1.77,0,0,1,.7.47,1.18,1.18,0,0,1,.26.79,1.45,1.45,0,0,1-.26.86,1.72,1.72,0,0,1-.75.58,3,3,0,0,1-1.16.2,3.84,3.84,0,0,1-1.26-.18Z" transform="translate(0 0.01)"></path></svg>