<svg xmlns="http://www.w3.org/2000/svg" viewBox="0 0 60 52"><g><g><path d="M56.7 28.359a2 2 0 0 0 .8-3.2l-1.7-1.923a1.988 1.988 0 0 0-1.458-.675l-14.364-.44a1 1 0 0 1-.863-1.485l.436-.785a4 4 0 0 0-2-5.649L29.552 11l.745-1.856 2.784 1.118a3 3 0 0 0 2.235-5.568L24.181.217a3 3 0 1 0-2.235 5.567L24.73 6.9l-.746 1.857L16 5.554a3.948 3.948 0 0 0-4.7 1.345l-3.281-1.32a5 5 0 0 0-6.5 2.775L.36 11.231a4.984 4.984 0 0 0 .261 4.28L6.1 25.48l-.3 1.166a3.016 3.016 0 0 0 1.79 3.544l18.469 7.418a6.979 6.979 0 0 0 5.053.064l25.584-9.31zM22.136 2.628a1 1 0 0 1 1.3-.556l11.136 4.473a1 1 0 1 1-.747 1.856l-3.709-1.49-2.286-.917-5.139-2.065a1 1 0 0 1-.555-1.301zm3.7 6.876.745-1.856 1.856.746-.737 1.855zM2.373 14.546a2.987 2.987 0 0 1-.157-2.568L3.371 9.1a3 3 0 0 1 3.9-1.666l3.24 1.3-3.67 13.94zM30.416 35.8a5 5 0 0 1-3.617-.043L8.331 28.335a1.011 1.011 0 0 1-.6-1.184l4.846-18.4a2.008 2.008 0 0 1 1.931-1.493c.258 0 .513.05.752.147l21.534 8.649a2 2 0 0 1 1 2.822l-.436.785a3 3 0 0 0 2.57 4.456l14.364.44L56 26.484z"></path><path d="m16 9.861-.928-.372a1 1 0 1 0-.744 1.856l.928.372A1 1 0 0 0 16 9.861zM32.7 16.57l-12.991-5.217a1 1 0 1 0-.745 1.855l12.992 5.218a1 1 0 0 0 .744-1.856zM53 32a1.982 1.982 0 0 0-1.684.945C48.892 36.833 46 42.031 46 44.722a7.005 7.005 0 1 0 14 0c0-2.691-2.892-7.889-5.316-11.777A1.982 1.982 0 0 0 53 32zm0 18a5.151 5.151 0 0 1-5-5.278c0-1.68 1.874-5.687 4.986-10.718C56.126 39.035 58 43.042 58 44.722A5.151 5.151 0 0 1 53 50z"></path><path d="M52 47a1 1 0 0 0 1 1 3.13 3.13 0 0 0 3-3.235 1 1 0 0 0-2 0A1.17 1.17 0 0 1 53 46a1 1 0 0 0-1 1z"></path></g></g></svg>