<svg xmlns="http://www.w3.org/2000/svg" xml:space="preserve" viewBox="0 0 682.667 682.667"><defs><clipPath id="a"><path d="M0 512h512V0H0Z"></path></clipPath></defs><g><g><g clip-path="url(#a)" transform="matrix(1.3333333,0,0,-1.3333333,0,682.66667)"><g><path d="M0 0v-36.57h-217.489v217.489H-7.696A7.696 7.696 0 0 0 0 173.222V34.071" style="fill:none;stroke:#000;stroke-width:15;stroke-linecap:round;stroke-linejoin:round;stroke-miterlimit:10;stroke-dasharray:none;stroke-opacity:1" transform="translate(473.4893,106.4102)"></path></g><g><path d="M0 0h-25.965v-57.754c0-3.42 3.616-5.631 6.66-4.071l17.218 8.826a4.57 4.57 0 0 0 4.173 0l17.218-8.826c3.044-1.56 6.66.651 6.66 4.071V0z" style="fill:none;stroke:#000;stroke-width:15;stroke-linecap:round;stroke-linejoin:round;stroke-miterlimit:10;stroke-dasharray:none;stroke-opacity:1" transform="translate(364.7451,287.3291)"></path></g><g><path d="M0 0h-73.271a4.408 4.408 0 0 0-4.407 4.407v31.441a4.408 4.408 0 0 0 4.407 4.407H0a4.407 4.407 0 0 0 4.407-4.407V4.407A4.407 4.407 0 0 0 0 0Z" style="fill:none;stroke:#000;stroke-width:15;stroke-linecap:round;stroke-linejoin:round;stroke-miterlimit:10;stroke-dasharray:none;stroke-opacity:1" transform="translate(401.3799,106.4087)"></path></g><g><path d="M0 0v-138.12h217.49v209.8a7.69 7.69 0 0 1-7.691 7.69H7.697A7.697 7.697 0 0 1 0 71.673V34.071" style="fill:none;stroke:#000;stroke-width:15;stroke-linecap:round;stroke-linejoin:round;stroke-miterlimit:10;stroke-dasharray:none;stroke-opacity:1" transform="translate(147.2554,425.4526)"></path></g><g><path d="M0 0h-25.965v-57.755c0-3.42 3.617-5.63 6.661-4.07l17.218 8.826a4.577 4.577 0 0 0 4.173 0l17.218-8.826c3.043-1.56 6.66.65 6.66 4.07V0Z" style="fill:none;stroke:#000;stroke-width:15;stroke-linecap:round;stroke-linejoin:round;stroke-miterlimit:10;stroke-dasharray:none;stroke-opacity:1" transform="translate(256,504.8228)"></path></g><g><path d="M0 0h-73.27a4.407 4.407 0 0 0-4.407 4.408v31.44a4.407 4.407 0 0 0 4.407 4.407H0a4.406 4.406 0 0 0 4.407-4.407V4.408A4.406 4.406 0 0 0 0 0Z" style="fill:none;stroke:#000;stroke-width:15;stroke-linecap:round;stroke-linejoin:round;stroke-miterlimit:10;stroke-dasharray:none;stroke-opacity:1" transform="translate(292.6348,323.9019)"></path></g><g><path d="M0 0h-217.49v209.792a7.698 7.698 0 0 0 7.697 7.697H0Z" style="fill:none;stroke:#000;stroke-width:15;stroke-linecap:round;stroke-linejoin:round;stroke-miterlimit:10;stroke-dasharray:none;stroke-opacity:1" transform="translate(256,69.8398)"></path></g><g><path d="M0 0h-25.965v-57.754c0-3.42 3.617-5.631 6.661-4.071l17.218 8.826a4.569 4.569 0 0 0 4.172 0l17.218-8.826c3.044-1.56 6.66.651 6.66 4.071V0Z" style="fill:none;stroke:#000;stroke-width:15;stroke-linecap:round;stroke-linejoin:round;stroke-miterlimit:10;stroke-dasharray:none;stroke-opacity:1" transform="translate(147.2554,287.3291)"></path></g><g><path d="M0 0h-73.27a4.407 4.407 0 0 0-4.407 4.407v31.441a4.407 4.407 0 0 0 4.407 4.407H0a4.407 4.407 0 0 0 4.407-4.407V4.407A4.407 4.407 0 0 0 0 0Z" style="fill:none;stroke:#000;stroke-width:15;stroke-linecap:round;stroke-linejoin:round;stroke-miterlimit:10;stroke-dasharray:none;stroke-opacity:1" transform="translate(183.8901,106.4087)"></path></g><g><path d="M0 0h-490.06a3.691 3.691 0 0 0-3.691 3.691v21.775a3.691 3.691 0 0 0 3.691 3.691H0a3.69 3.69 0 0 0 3.69-3.691V3.691A3.69 3.69 0 0 0 0 0Z" style="fill:none;stroke:#000;stroke-width:15;stroke-linecap:round;stroke-linejoin:round;stroke-miterlimit:10;stroke-dasharray:none;stroke-opacity:1" transform="translate(501.0303,40.6792)"></path></g><g><path d="M0 0h-21.818a5.842 5.842 0 0 0-5.842 5.842v27.66H5.842V5.842A5.843 5.843 0 0 0 0 0Z" style="fill:none;stroke:#000;stroke-width:15;stroke-linecap:round;stroke-linejoin:round;stroke-miterlimit:10;stroke-dasharray:none;stroke-opacity:1" transform="translate(470.0488,7.1772)"></path></g><g><path d="M0 0h-21.819a5.842 5.842 0 0 0-5.841 5.842v27.66H5.842V5.842A5.843 5.843 0 0 0 0 0Z" style="fill:none;stroke:#000;stroke-width:15;stroke-linecap:round;stroke-linejoin:round;stroke-miterlimit:10;stroke-dasharray:none;stroke-opacity:1" transform="translate(63.77,7.1772)"></path></g></g></g></g></svg>